<svg xmlns="http://www.w3.org/2000/svg" aria-hidden="true" style="position:absolute;width:0;height:0;overflow:hidden">
  <defs>
    <symbol id="icon-close" viewBox="0 0 32 32">
      <path stroke-linecap="round" stroke-linejoin="round" stroke-width="2.667" d="M24 8 8 24M8 8l16 16"/>
    </symbol>
    <symbol id="icon-hourglass" viewBox="0 0 32 32">
      <path stroke-linecap="round" stroke-linejoin="round" stroke-width="2.667" d="M24.217 2.667H7.783c-.617 0-1.117.5-1.117 1.117a13.4 13.4 0 0 0 3.925 9.475l1.626 1.626c.161.161.242.242.3.32a1.335 1.335 0 0 1 0 1.594c-.058.077-.139.158-.3.32l-1.626 1.626a13.4 13.4 0 0 0-3.925 9.475c0 .617.5 1.117 1.117 1.117h16.434c.617 0 1.117-.5 1.117-1.117a13.4 13.4 0 0 0-3.925-9.475l-1.626-1.626c-.161-.161-.242-.242-.3-.32a1.332 1.332 0 0 1 0-1.594c.058-.077.139-.158.3-.32l1.626-1.626a13.4 13.4 0 0 0 3.925-9.475c0-.617-.5-1.117-1.117-1.117z"/>
    </symbol>
    <symbol id="icon-jefferson" viewBox="0 0 64 32">
      <path d="m55.942 15.158.234-4.936-4.313 2.685-1.337-2.219 4.581-2.251-4.581-2.251 1.337-2.251 4.313 2.685-.234-4.936h2.641l-.234 4.936 4.313-2.685 1.337 2.251-4.58 2.251 4.58 2.251-1.337 2.219-4.313-2.685.234 4.936h-2.641zM46.213 7.158v2.834H35.369V7.158h10.844zm-7.888 18.105V5.052c0-1.123.264-2.057.791-2.802A4.876 4.876 0 0 1 41.213.566a6.96 6.96 0 0 1 2.801-.567c.768 0 1.421.059 1.959.178s.934.221 1.186.308l-.894 2.85a10.008 10.008 0 0 0-.67-.178 4.264 4.264 0 0 0-.997-.097c-.905 0-1.558.216-1.959.648-.401.421-.601 1.036-.601 1.846v19.709h-3.712z"/>
      <path d="M36.108 7.158v2.834H25.264V7.158h10.844zm-7.889 18.105V5.052c0-1.123.264-2.057.791-2.802A4.87 4.87 0 0 1 31.107.566a6.96 6.96 0 0 1 2.801-.567c.768 0 1.421.059 1.959.178s.934.221 1.186.308l-.894 2.85a10.008 10.008 0 0 0-.67-.178 4.264 4.264 0 0 0-.997-.097c-.905 0-1.558.216-1.959.648-.401.421-.601 1.036-.601 1.846v19.709H28.22zM17.291 25.263c-1.82 0-3.395-.38-4.726-1.139s-2.358-1.829-3.079-3.208c-.71-1.39-1.065-3.01-1.065-4.86 0-1.839.35-3.459 1.048-4.86.71-1.401 1.703-2.492 2.979-3.272 1.287-.791 2.796-1.187 4.527-1.187 1.054 0 2.075.166 3.062.497s1.875.855 2.663 1.572c.788.716 1.409 1.647 1.864 2.791.466 1.144.699 2.524.699 4.138v1.251H10.468v-2.615h12.931l-1.681.866c0-1.101-.177-2.075-.533-2.919s-.888-1.502-1.598-1.973c-.699-.481-1.57-.722-2.613-.722s-1.936.241-2.679.722c-.732.481-1.293 1.117-1.681 1.909s-.582 1.657-.582 2.598v1.78c0 1.23.222 2.272.666 3.128s1.06 1.508 1.847 1.957c.799.449 1.725.674 2.779.674.688 0 1.309-.096 1.864-.289.566-.193 1.054-.481 1.465-.866s.721-.861.932-1.428l3.428.625c-.277.962-.766 1.807-1.464 2.534s-1.581 1.294-2.646 1.7c-1.054.396-2.258.593-3.611.593zM2.878 7.012h3.416v19.376c.011 1.215-.2 2.24-.633 3.075s-1.065 1.464-1.898 1.887c-.833.434-1.856.651-3.068.651h-.696v-3.042h.553c.822 0 1.413-.222 1.771-.667s.543-1.085.554-1.92V7.012zM4.57 4.213c-.601 0-1.112-.206-1.534-.618s-.633-.906-.633-1.48c0-.586.211-1.085.633-1.497S3.969 0 4.57 0c.59 0 1.096.206 1.518.618.432.412.648.911.648 1.497 0 .575-.216 1.068-.648 1.48a2.096 2.096 0 0 1-1.518.618z"/>
    </symbol>
    <symbol id="icon-brush" viewBox="0 0 32 32">
      <path stroke-linecap="round" stroke-linejoin="round" stroke-width="2.667" d="M17.037 20 12 14.963M2.667 29.333c2.667 0 6.144.456 7.966-1.367a4.668 4.668 0 0 0-6.6-6.6c-1.823 1.822 0 5.3-1.367 7.967z"/>
      <path stroke-linecap="round" stroke-linejoin="round" stroke-width="2.667" d="M10.667 21.333c-.655-.655-.983-.983-1.168-1.326a2.668 2.668 0 0 1 .05-2.623c.198-.336.538-.651 1.218-1.28L23.924 3.921a2.94 2.94 0 0 1 4.153 4.153L15.894 21.231c-.63.68-.944 1.02-1.28 1.218-.805.475-1.8.495-2.623.05-.343-.185-.671-.513-1.326-1.168z"/>
    </symbol>
    <symbol id="icon-message-chat" viewBox="0 0 32 32">
      <path stroke-linecap="round" stroke-linejoin="round" stroke-width="2.667" d="M8.126 14.972A10.66 10.66 0 0 1 8 13.334C8 7.443 12.807 2.667 18.737 2.667s10.737 4.776 10.737 10.667c0 1.331-.245 2.605-.693 3.779-.093.244-.14.366-.161.461s-.029.161-.031.257c-.002.097.011.205.037.42l.537 4.36c.058.472.087.708.009.88a.667.667 0 0 1-.343.335c-.173.075-.409.04-.879-.029l-4.247-.623a2.965 2.965 0 0 0-.434-.048c-.1.001-.169.008-.267.028s-.225.068-.477.163a10.78 10.78 0 0 1-3.787.683c-.558 0-1.105-.042-1.64-.124m-6.923 5.457c3.953 0 7.158-3.283 7.158-7.333s-3.205-7.333-7.158-7.333c-3.953 0-7.158 3.283-7.158 7.333 0 .814.13 1.597.369 2.329.101.309.152.464.168.57.017.11.02.172.014.284-.006.107-.033.227-.086.469l-.815 3.682 3.993-.545c.218-.03.327-.045.422-.044.1.001.153.006.252.026.093.019.232.067.51.165a6.994 6.994 0 0 0 2.332.398z"/>
    </symbol>
    <symbol id="icon-user" viewBox="0 0 32 32">
      <path stroke-linecap="round" stroke-linejoin="round" stroke-width="2.667" d="M26.667 28c0-1.861 0-2.791-.23-3.548a5.333 5.333 0 0 0-3.556-3.556c-.757-.23-1.687-.23-3.548-.23h-6.667c-1.861 0-2.791 0-3.548.23a5.335 5.335 0 0 0-3.556 3.556c-.23.757-.23 1.687-.23 3.548M16 16a6 6 0 1 0 0-12 6 6 0 0 0 0 12z"/>
    </symbol>
    <symbol id="icon-arrow-down" viewBox="0 0 32 32">
      <path stroke-width="3.2" d="m24 12-8 8-8-8"/>
    </symbol>
    <symbol id="icon-arrow-up" viewBox="0 0 32 32">
      <path stroke-width="3.2" d="m24 20-8-8-8 8"/>
    </symbol>
    <symbol id="icon-arrow-left" viewBox="0 0 32 32">
      <path stroke-linecap="round" stroke-linejoin="round" stroke-width="2" d="M26.667 16H5.334M13.333 24l-8-8 8-8"/>
    </symbol>
    <symbol id="icon-arrow-right" viewBox="0 0 32 32">
      <path stroke-linecap="round" stroke-linejoin="round" stroke-width="2" d="M5.333 16h21.333M18.667 8l8 8-8 8"/>
    </symbol>
  </defs>
</svg>
